<?xml version="1.0" encoding="UTF-8"?>
<svg id="Layer_2" data-name="Layer 2" xmlns="http://www.w3.org/2000/svg" xmlns:xlink="http://www.w3.org/1999/xlink" viewBox="0 0 581.11 582.14">
  <defs>
    <style>
      .cls-1 {
        fill: url(#linear-gradient-2);
      }

      .cls-2 {
        fill: #fff;
      }

      .cls-3 {
        fill: url(#linear-gradient-17);
      }

      .cls-4 {
        fill: url(#linear-gradient-15);
      }

      .cls-5 {
        fill: url(#linear-gradient-18);
      }

      .cls-6 {
        fill: url(#linear-gradient-28);
      }

      .cls-7 {
        fill: url(#linear-gradient-14);
      }

      .cls-8 {
        fill: url(#linear-gradient-36);
      }

      .cls-9 {
        fill: url(#linear-gradient-20);
      }

      .cls-10 {
        fill: url(#linear-gradient-6);
      }

      .cls-11 {
        clip-path: url(#clippath-2);
      }

      .cls-12 {
        fill: url(#linear-gradient-35);
      }

      .cls-13 {
        fill: url(#linear-gradient-32);
      }

      .cls-14 {
        fill: url(#linear-gradient-11);
      }

      .cls-15 {
        clip-path: url(#clippath-1);
      }

      .cls-16 {
        fill: url(#linear-gradient-10);
      }

      .cls-17 {
        fill: #91b3fa;
      }

      .cls-18 {
        fill: url(#linear-gradient-16);
      }

      .cls-19 {
        fill: url(#linear-gradient-31);
      }

      .cls-20 {
        fill: #7d97f4;
      }

      .cls-21 {
        fill: url(#linear-gradient-21);
      }

      .cls-22 {
        fill: url(#linear-gradient-25);
      }

      .cls-23 {
        fill: url(#linear-gradient-5);
      }

      .cls-24 {
        clip-path: url(#clippath);
      }

      .cls-25 {
        fill: url(#linear-gradient-34);
      }

      .cls-26 {
        fill: none;
      }

      .cls-27 {
        fill: url(#linear-gradient-7);
      }

      .cls-28 {
        fill: url(#linear-gradient-24);
      }

      .cls-29 {
        fill: url(#linear-gradient-9);
      }

      .cls-30 {
        fill: url(#linear-gradient-22);
      }

      .cls-31 {
        fill: url(#linear-gradient-3);
      }

      .cls-32 {
        fill: url(#linear-gradient);
      }

      .cls-33 {
        fill: url(#linear-gradient-27);
      }

      .cls-34 {
        fill: url(#linear-gradient-33);
      }

      .cls-35 {
        fill: url(#linear-gradient-29);
      }

      .cls-36 {
        fill: url(#linear-gradient-30);
      }

      .cls-37 {
        fill: url(#linear-gradient-23);
      }

      .cls-38 {
        fill: url(#linear-gradient-19);
      }

      .cls-39 {
        fill: url(#linear-gradient-4);
      }

      .cls-40 {
        fill: url(#linear-gradient-8);
      }

      .cls-41 {
        fill: url(#linear-gradient-12);
      }

      .cls-42 {
        fill: url(#linear-gradient-13);
      }

      .cls-43 {
        fill: url(#linear-gradient-26);
      }
    </style>
    <linearGradient id="linear-gradient" x1="629.49" y1="591.22" x2="194.82" y2="210.88" gradientUnits="userSpaceOnUse">
      <stop offset="0" stop-color="#dae3fe"/>
      <stop offset="1" stop-color="#e9effd"/>
    </linearGradient>
    <clipPath id="clippath">
      <circle class="cls-26" cx="476.15" cy="163.63" r="87.75"/>
    </clipPath>
    <linearGradient id="linear-gradient-2" x1="550.29" y1="130.39" x2="361.62" y2="354.26" gradientTransform="translate(39.14 -29.19) rotate(-1.87)" gradientUnits="userSpaceOnUse">
      <stop offset="0" stop-color="#4042e2"/>
      <stop offset="1" stop-color="#4f52ff"/>
    </linearGradient>
    <linearGradient id="linear-gradient-3" x1="485.52" y1="211.72" x2="467.22" y2="127.24" gradientUnits="userSpaceOnUse">
      <stop offset="0" stop-color="#febbba"/>
      <stop offset="1" stop-color="#ff928e"/>
    </linearGradient>
    <linearGradient id="linear-gradient-4" x1="2647.29" y1="-1227.24" x2="2691.61" y2="-1238.03" gradientTransform="translate(870.76 540.85) rotate(-30.74)" xlink:href="#linear-gradient-3"/>
    <linearGradient id="linear-gradient-5" x1="-144.89" y1="-568.37" x2="-99.24" y2="-568.37" gradientTransform="translate(870.76 540.85) rotate(-30.74)" gradientUnits="userSpaceOnUse">
      <stop offset="0" stop-color="#09005d"/>
      <stop offset="1" stop-color="#1a0f91"/>
    </linearGradient>
    <linearGradient id="linear-gradient-6" x1="2645.72" y1="-1233.66" x2="2690.04" y2="-1244.44" gradientTransform="translate(870.76 540.85) rotate(-30.74)" xlink:href="#linear-gradient-3"/>
    <linearGradient id="linear-gradient-7" x1="530.95" y1="114.09" x2="342.27" y2="337.96" xlink:href="#linear-gradient-2"/>
    <linearGradient id="linear-gradient-8" x1="422.98" y1="326.4" x2="377.96" y2="364.86" gradientTransform="translate(39.14 -29.19) rotate(-1.87)" xlink:href="#linear-gradient-3"/>
    <linearGradient id="linear-gradient-9" x1="585" y1="159.64" x2="396.33" y2="383.51" xlink:href="#linear-gradient-2"/>
    <linearGradient id="linear-gradient-10" x1="450.07" y1="328.48" x2="475.4" y2="353.8" gradientTransform="translate(39.14 -29.19) rotate(-1.87)" xlink:href="#linear-gradient-3"/>
    <clipPath id="clippath-1">
      <circle class="cls-26" cx="272.88" cy="113.66" r="87.75"/>
    </clipPath>
    <linearGradient id="linear-gradient-11" x1="-3477.26" y1="147.28" x2="-3381.5" y2="279.41" gradientTransform="translate(-3169.77 41.42) rotate(177.95) scale(1 -1)" xlink:href="#linear-gradient-5"/>
    <linearGradient id="linear-gradient-12" x1="259.32" y1="167.64" x2="326.69" y2="167.64" gradientUnits="userSpaceOnUse">
      <stop offset="0" stop-color="#fe7062"/>
      <stop offset="1" stop-color="#ff928e"/>
    </linearGradient>
    <linearGradient id="linear-gradient-13" x1="-7480.49" y1="250.04" x2="-7474.64" y2="207.22" gradientTransform="translate(-7187.42 184.77) rotate(177.95) scale(1 -1)" xlink:href="#linear-gradient-3"/>
    <linearGradient id="linear-gradient-14" x1="-7498.4" y1="-1027.38" x2="-7447.33" y2="-1118.26" gradientTransform="translate(-7260.64 -63.84) rotate(-170.84) scale(1 -1)" xlink:href="#linear-gradient-3"/>
    <linearGradient id="linear-gradient-15" x1="-3468.09" y1="131.1" x2="-3368.07" y2="269.11" gradientTransform="translate(-3169.77 41.42) rotate(177.95) scale(1 -1)" xlink:href="#linear-gradient-5"/>
    <linearGradient id="linear-gradient-16" x1="-7487.53" y1="-1021.28" x2="-7436.46" y2="-1112.15" gradientTransform="translate(-7260.64 -63.84) rotate(-170.84) scale(1 -1)" xlink:href="#linear-gradient-3"/>
    <linearGradient id="linear-gradient-17" x1="240.88" y1="179.35" x2="281.33" y2="179.35" xlink:href="#linear-gradient-12"/>
    <clipPath id="clippath-2">
      <circle class="cls-26" cx="488.89" cy="387.25" r="87.75"/>
    </clipPath>
    <linearGradient id="linear-gradient-18" x1="637.86" y1="-261.2" x2="604.12" y2="-191.64" gradientTransform="translate(-133.29 437.84) rotate(9.25)" xlink:href="#linear-gradient-5"/>
    <linearGradient id="linear-gradient-19" x1="501.78" y1="377.15" x2="460.95" y2="567.24" xlink:href="#linear-gradient-12"/>
    <linearGradient id="linear-gradient-20" x1="426.35" y1="419.38" x2="497.52" y2="591.29" xlink:href="#linear-gradient-3"/>
    <linearGradient id="linear-gradient-21" x1="-5975.55" y1="419.01" x2="-5904.38" y2="590.92" gradientTransform="translate(-5423.03) rotate(-180) scale(1 -1)" xlink:href="#linear-gradient-3"/>
    <linearGradient id="linear-gradient-22" x1="488.83" y1="433.57" x2="487.88" y2="351.18" xlink:href="#linear-gradient-3"/>
    <linearGradient id="linear-gradient-23" x1="603.26" y1="-148.94" x2="606.21" y2="-220.64" gradientTransform="translate(-133.29 437.84) rotate(9.25)" xlink:href="#linear-gradient-3"/>
    <linearGradient id="linear-gradient-24" x1="638.11" y1="-270.99" x2="600.14" y2="-192.72" gradientTransform="translate(-133.29 437.84) rotate(9.25)" xlink:href="#linear-gradient-5"/>
    <linearGradient id="linear-gradient-25" x1="202.63" y1="744.4" x2="207.25" y2="632.06" gradientTransform="translate(176.75 -313.67) rotate(-7.64)" xlink:href="#linear-gradient-3"/>
    <linearGradient id="linear-gradient-26" x1="408.7" y1="254.12" x2="280.09" y2="421.43" xlink:href="#linear-gradient-3"/>
    <linearGradient id="linear-gradient-27" x1="124.15" y1="447.03" x2="-301.87" y2="951.93" gradientTransform="matrix(1, 0, 0, 1, 0, 0)" xlink:href="#linear-gradient-2"/>
    <linearGradient id="linear-gradient-28" x1="432.77" y1="78.14" x2="204.66" y2="372.42" gradientTransform="matrix(1, 0, 0, 1, 0, 0)" xlink:href="#linear-gradient-2"/>
    <linearGradient id="linear-gradient-29" x1="122.04" y1="362.25" x2="136.11" y2="288.39" xlink:href="#linear-gradient-3"/>
    <linearGradient id="linear-gradient-30" x1="160.11" y1="226.74" x2="79.84" y2="288.16" xlink:href="#linear-gradient-3"/>
    <linearGradient id="linear-gradient-31" x1="103.6" y1="178.1" x2="178.36" y2="274.36" gradientTransform="matrix(1, 0, 0, 1, 0, 0)" xlink:href="#linear-gradient-5"/>
    <linearGradient id="linear-gradient-32" x1="150.15" y1="213.72" x2="69.88" y2="275.15" xlink:href="#linear-gradient-3"/>
    <linearGradient id="linear-gradient-33" x1="444.93" y1="103.66" x2="427.33" y2="245.17" xlink:href="#linear-gradient-3"/>
    <linearGradient id="linear-gradient-34" x1="37.1" y1="498.46" x2="215.92" y2="578.72" xlink:href="#linear-gradient-3"/>
    <linearGradient id="linear-gradient-35" x1="-3837.79" y1="415.32" x2="-3964.72" y2="450.1" gradientTransform="translate(-3713.92 -87.94) rotate(-177.17) scale(1 -1)" xlink:href="#linear-gradient-5"/>
    <linearGradient id="linear-gradient-36" x1="-3949.57" y1="435.47" x2="-4039.11" y2="530.1" gradientTransform="translate(-3678.69) rotate(-180) scale(1 -1)" xlink:href="#linear-gradient-5"/>
  </defs>
  <g id="Layer_1-2" data-name="Layer 1">
    <g>
      <path class="cls-32" d="m556.39,393.29c-56.34,131.75-206.43,205.55-336.58,185.64-21.18-3.24-79.24-12.89-130.65-58.42C-9.8,432.87-30.96,259.33,48.86,137.03,106.97,48.02,211.12-2.43,310.08.09c21.32.54,103.01,3.89,174.81,62.69,10.55,8.64,33.8,29.16,54.77,61.71,49.22,76.44,53.45,182.94,16.73,268.8Z"/>
      <g>
        <circle class="cls-17" cx="476.22" cy="163.56" r="92.16"/>
        <g class="cls-24">
          <rect class="cls-2" x="367.34" y="38.29" width="217.25" height="239.32" rx="2.33" ry="2.33" transform="translate(-4.9 15.61) rotate(-1.87)"/>
          <g>
            <path class="cls-1" d="m431.01,174.42s53.16-10.18,95.71-.31l-1.39,43.68s-9.28,60.83-16.84,87.82c0,0-32.16,6.68-47.9-1.25,0,0-15.13-75.52-22.53-86.54,0,0-7.99-29.3-7.05-43.41Z"/>
            <path class="cls-31" d="m466.87,134.78l-4.15,36.17s15.09,6.35,25.28-1.12l-3.07-25.33-18.06-9.72Z"/>
            <g>
              <path class="cls-39" d="m489.02,110.6c.18.3,3.98,18.35,6.32,29.52.97,4.62-2.3,9.04-7,9.47l-4.3.4c-7.9.73-15.06-4.68-16.51-12.48l-3.78-20.25s20.96-13.9,25.27-6.65Z"/>
              <path class="cls-23" d="m459.11,117.45c-1.72-2-3.27-5.28.14-8.88,3.45-3.65,7.52-2.9,10.12-1.8,1.15.49,2.54.21,3.32-.77.35-.44.87-.74,1.66-.68,1.5.12,2.79-.91,2.92-2.4.22-2.56,1.48-5.61,5.97-6.63,8.23-1.87,12.63,6.28,12.67,12.11.04,5.83-8.99,7.35-14.17,6.55-3.8-.59-6.97,2.84-8.38,4.71-.51.68-.68,1.55-.46,2.36l1.49,5.58c-.85,1.78-1.68,3.59-2.91,5.13-.88,1.1-1.87,1.73-2.93,2.02-1.64-2.82-5.97-3.17-7.98-3.17-.77,0-1.5-.31-2.02-.88-1.57-1.69-4.07-5.48.34-9.43,1.1-.98,1.17-2.69.21-3.8Z"/>
              <path class="cls-10" d="m470.24,140.7s-.51-10.15-4.65-10.97c-4.14-.82-8.48,2.3-4.77,8.26,4.62,7.42,9.42,2.71,9.42,2.71Z"/>
            </g>
            <path class="cls-27" d="m431.01,174.42s-80.03,92.7,18.83,123.96l-.23-7.03s-37.57-29.74-10.82-72.84c0,0-4.82-39.96-7.77-44.09Z"/>
            <path class="cls-40" d="m450.33,292.03s12.38-8.85,18.1-6.22c5.72,2.63,5.85,6.85,5.85,6.85,0,0-2.63,5.72-6.89,4.45-4.26-1.27-14.02,1.87-18.28.6,0,0-1.59-5.58,1.22-5.67Z"/>
            <path class="cls-29" d="m526.72,174.11s89.32,84.36-7.28,122l-.23-7.03s35.55-32.13,6.05-73.4c0,0-3.94-34.36,1.46-41.57Z"/>
            <path class="cls-16" d="m518.53,289.8s-12.93-8.02-18.46-5.03c-5.53,3-5.4,7.21-5.4,7.21,0,0,3,5.53,7.17,3.99,4.17-1.54,14.11.95,18.28-.6,0,0,1.22-5.67-1.59-5.58Z"/>
          </g>
        </g>
      </g>
      <g>
        <circle class="cls-17" cx="272.95" cy="113.58" r="92.16"/>
        <g class="cls-15">
          <rect class="cls-2" x="164.07" y="-11.68" width="217.25" height="239.32" rx="2.33" ry="2.33" transform="translate(-3.38 8.95) rotate(-1.87)"/>
          <g>
            <path class="cls-14" d="m269.09,74.11s1.7,3.13-8.48,8.47c-5.68,2.98-16.77,7.48-17.82,19.5-.55,6.21-4.94,11.32-11.06,12.48-15.25,2.9-38.59,11.7-41.42,38.45-2.16,20.42,8.47,27.75,19.44,30.03,8.05,1.67,13.64,9.25,12.31,17.37-1.27,7.79,1.36,16.64,15,23.23,30.58,14.77,58.64-39.66,58.64-39.66l2.82-93.38-29.43-16.49Z"/>
            <path class="cls-41" d="m276.29,207.82c8.14-40.96-16.97-63.07-16.97-63.07,11.89-12.26,32.1-19.63,39.58-22.05,1.84-.59,3.83-.26,5.38.9,6.67,5,24.37,19.6,22.24,32.09-1.53,9-16.81,54.18-16.81,54.18,0,0-15.34,7.94-33.41-2.06Z"/>
            <path class="cls-42" d="m283.43,95.59l-6.54,35.28c-.64,3.11,2.16,2.51,5.25,1.81,5.07-1.14,11.58-3.36,13.64-7.41.21-.41.3-.87.35-1.33l2.48-24.39c.2-1.93-.91-3.77-2.72-4.49l-6.56-2.63c-2.53-1.01-5.36.51-5.9,3.18Z"/>
            <g>
              <path class="cls-7" d="m297.21,63.14s8.5,5.32,12.57,19.5c4.08,14.18-1.54,19.51-7.49,19.41-5.95-.1-14.63-1.63-22.45-11.63-7.83-9.99,6.25-33.75,17.37-27.28Z"/>
              <path class="cls-4" d="m287.17,84.39s-3.77-20.39,13.36-17.86l3.57,3.46s7.99-9.68-1.48-16.44c-9.47-6.76-22.19-4.49-28.81,8.67-6.62,13.16-8.86,22.32-2.64,30.13,6.22,7.81,10.43.77,10.43.77,0,0-2.97-6.84-.82-9.9,2.15-3.06,5.23,1.55,5.23,1.55l1.16-.38Z"/>
              <path class="cls-18" d="m284.9,86.22s-1.88-10.49-7.15-7.28c-5.28,3.21,2.29,9.78,5.31,12l1.84-4.72Z"/>
            </g>
            <path class="cls-3" d="m259.23,145.35s-15.6,27.06-18.2,47.03c-2.6,19.97,29.12,27.12,40.29,15.13l-1.95-8.21s-18.08,3.96-20.09-5.91c-2.01-9.87,13.83-30.31,13.83-30.31,0,0-5.49-14.71-13.88-17.72Z"/>
            <path class="cls-17" d="m213.03,171.05c-.47,0-1-.19-1.44-.46-7.2-4.33-11.28-13.65-9.94-22.66.8-5.4,3.3-10.12,7.03-13.3,2.64-2.25,5.82-3.68,8.85-4.95,5.1-2.14,10.37-4.05,15.66-5.69.43-.13.87-.27,1.3-.4,3.09-.94,6.29-1.91,9.15-3.48,3.66-2,6.28-4.81,7.38-7.91.68-1.93.82-4.05.96-6.1.17-2.53.34-5.14,1.53-7.41.05-.09.16-.12.25-.08.09.05.13.16.08.25-1.15,2.21-1.32,4.78-1.48,7.27-.14,2.08-.28,4.22-.98,6.2-1.13,3.19-3.81,6.07-7.55,8.11-2.9,1.58-6.11,2.56-9.22,3.51-.43.13-.87.26-1.3.4-5.28,1.63-10.54,3.54-15.63,5.68-3,1.26-6.15,2.67-8.76,4.89-3.66,3.12-6.11,7.76-6.9,13.07-1.32,8.87,2.69,18.03,9.77,22.29.51.31,1.47.67,1.85.1.06-.09.17-.11.26-.05.08.06.11.17.05.26-.22.33-.54.46-.91.47Z"/>
            <path class="cls-17" d="m210.95,162.7c-.06,0-.12-.03-.15-.08-2.86-3.96-4.42-8.16-4.52-12.16-.12-4.69,1.9-9.13,5.28-11.58.08-.06.2-.04.26.04.06.08.04.2-.04.26-3.28,2.38-5.24,6.7-5.13,11.28.1,3.92,1.64,8.06,4.45,11.96.06.08.04.2-.04.26-.03.02-.07.03-.1.03Z"/>
          </g>
        </g>
      </g>
      <g>
        <circle class="cls-17" cx="488.95" cy="387.18" r="92.16"/>
        <g class="cls-11">
          <rect class="cls-2" x="380.08" y="261.92" width="217.25" height="239.32" rx="2.33" ry="2.33" transform="translate(-12.19 16.15) rotate(-1.87)"/>
          <g>
            <path class="cls-5" d="m473.46,341.14c-.17.33-11.02,8.31-11.02,8.31,0,0,2.4,17.15,12.13,23.92,10.7,7.44,25.81-6.13,25.81-6.13,0,0,12.03,2.86,18.42-22.17,1.47-5.74-7-6.23-17.22-5.17-13.18,1.36-28.11,1.25-28.11,1.25Z"/>
            <path class="cls-38" d="m453.17,399.63c4.25-2.92,8.94-5.12,13.92-6.47,1.87-.51,11.96,2.42,18.2,2.28,8.56-.2,17.28-4.09,24.34-2.33,7.01,1.75,12.75,4.03,16.06,6.39,9.92,7.05,15.74,20.21,19.29,33.24-6.72,6.9-15.18,9.96-15.18,9.96l-1.56,63.33-37.45,19.16-42.75-21.46,1.53-61.89s-13.57-6.32-14.57-8.62c-1-2.3,6.19-25.35,18.16-33.58Z"/>
            <path class="cls-9" d="m435.64,432.94s-18.19,50.43,23.29,71.16c8.61-1.14,5.3-15.45,5.3-15.45,0,0-18.02-3.99-12.61-46.06-4.98-4.1-15.98-9.65-15.98-9.65Z"/>
            <path class="cls-21" d="m544.11,432.94s12.52,52.64-23.29,71.16c-8.61-1.14-5.3-15.45-5.3-15.45,0,0,14.53-7.15,12.61-46.06,4.98-4.1,15.98-9.65,15.98-9.65Z"/>
            <path class="cls-30" d="m467.09,393.16s3.78,16.4,22.16,16.06c18.71-.34,20.38-16.11,20.38-16.11l-12.22-2.62-1.02-13.62-18.39,1.36-.34,12.94-10.57,1.99Z"/>
            <path class="cls-37" d="m480.58,338.27s-21.07,40.82,3.92,50.72c17.63,6.99,28.69-27.11,25.39-36.34-5.1-14.28-8.46-12.58-8.46-12.58l-20.86-1.8Z"/>
            <path class="cls-28" d="m514.96,334.56c10.41,2.86,1.51,25.44-14.16,20.1-15.67-5.34-21.83-5.26-24.28-.96-2.44,4.3-2.97,19.59-8.27,12.03-5.81-8.28-9.05-24.91-1.93-30.27,6.37-4.79,7.85-12.22,15.49-11.96,10.14.34,17.97-4.15,22.55-.91,5.25,3.72,2.93,9.85,10.59,11.96Z"/>
            <path class="cls-22" d="m475.56,357.21s-4.49-4.84-5.21.99c-.72,5.83,1.59,13.33,4.3,9.22,2.71-4.11.92-10.21.92-10.21Z"/>
          </g>
        </g>
      </g>
      <g>
        <path class="cls-43" d="m477.07,204.85s-40.22,8.87-64.68,20.16c-4.86,2.24-8.73,6.17-10.94,11-7.32,16.03-29.2,56.21-71.65,75.39,6.11,8.11,15.96,24.99,20.24,53.36,25.49-18.98,47.5-50.67,58.07-102.64,0,0,8.05,4.37,18.08-.5,5.3-2.58,11.43-6.23,16.02-9.1,4.58-2.86,7.99-7.31,9.32-12.51,1.75-6.86.72-12.9.72-19.37l20.67-6.4s6.21-2.35,4.14-9.38Z"/>
        <path class="cls-33" d="m52.12,527.94c5.92-14.7,12.76-26.52,18.6-35.21-12.41-20.94-16.09-49.54,5.94-86.78,16.06,43.38,23.6,106.67,25.17,134.68.3,5.25-1.34,13.4-2.79,19.44-1.05,4.36,1.73,8.73,6.14,9.58,33.07,6.4,64.96,9.38,94.12,4.39,4.29-.74,7.72-4,8.69-8.24,19.06-84.14,18.94-142.06,13.95-179.13,19.74,4.41,80.11,13.83,128.11-21.9-4.29-28.37-14.13-45.24-20.24-53.36-26.37,11.91-60.67,15.72-104.35.59-4.03-1.4-8.23-2.21-12.48-2.46-23.25-1.36-99.88-3.85-163.28,17.1-13.34,4.41-24.15,14.27-29.72,27.06-17.15,39.36-44.92,129,32.17,174.26Z"/>
        <path class="cls-6" d="m222.02,389.05c-.87,0-1.63-.64-1.74-1.53-4.96-37.44-15.05-53.78-15.15-53.94-.52-.82-.27-1.91.55-2.43.82-.52,1.91-.28,2.43.54.43.68,10.59,17.04,15.67,55.36.13.96-.55,1.85-1.51,1.98-.08.01-.16.02-.23.02Z"/>
        <path class="cls-35" d="m114.92,257.73s-4.39,46.42-8.26,60.15c-.59,2.08.32,4.28,2.21,5.36,6.56,3.75,22.3,9.86,43.82-.69,3.49-1.71,5.58-5.34,5.42-9.19l-1.9-44.86-41.3-10.78Z"/>
        <g>
          <path class="cls-36" d="m157.17,198.34s14.04,32.26,14.99,49.19c.94,16.93,4.59,27.92-14.99,31.33-19.58,3.41-36.07-6.34-45-23.21,0,0-14-25.99-10.86-36.63,3.14-10.64,55.86-20.68,55.86-20.68Z"/>
          <path class="cls-19" d="m118.85,243.52l1.11-.49c1.42-.63,2.03-2.31,1.31-3.69-2.76-5.33-8.14-17.56-1.19-20.41,8.96-3.67,44.45-10.91,52.11-23.51,7.36-12.1.84-27.73-8.96-32.17-.66-.3-1.43-.06-1.77.58l-.82,1.55c-.56,1.06-2.12.9-2.45-.25-.32-1.1-1.79-1.32-2.4-.34-2.35,3.77-8.71,9.88-25.7,13.01-24.15,4.46-40.12,14.23-40.52,30.92-.03,1.06-1.15,1.65-2.06,1.1-1.78-1.09-4.64-1.6-8.45,1.61-6.63,5.58-3.92,20.04,10.62,31.94.69.57.69,1.64-.06,2.13-2.64,1.72-6.57,5.8,3.62,11.24,10.53,5.63,18.4,5.17,21.42,4.67.75-.12,1.24-.85,1.07-1.6l-3.23-14.67c-.18-.83.45-1.62,1.3-1.62h5.03Z"/>
          <path class="cls-13" d="m119.46,246.62s-5.36-20.61-14.6-14.83c-9.24,5.78,4.79,23.09,12.22,23.86l2.37-9.03Z"/>
        </g>
        <path class="cls-34" d="m418.84,257.33c-.39,0-.78-.13-1.11-.39-.75-.61-.87-1.72-.25-2.48,1.52-1.87,15.02-18.37,20.22-21.31,1.89-1.07,3.02-2.17,3.26-3.19.12-.49.04-1.03-.24-1.66l-15.86,3.18-8.98,7.71c-.73.63-1.85.55-2.48-.19-.63-.74-.55-1.85.19-2.48l9.33-8.01c.23-.2.5-.33.8-.39l17.56-3.52c.7-.14,1.41.15,1.81.74,1.29,1.91,1.71,3.68,1.3,5.42-.49,2.06-2.1,3.84-4.95,5.45-3.91,2.21-15.2,15.52-19.22,20.47-.35.43-.85.65-1.37.65Z"/>
        <path class="cls-25" d="m118.78,550.25l62.07.77-21.72-20.45c-5.4-5.08-13.64-5.91-19.87-1.86-3.65,2.37-7.61,5.58-11.04,9.83,0,0-38.72-14.15-57.49-45.81-5.85,8.68-12.68,20.5-18.6,35.21,16.83,9.88,38.64,17.65,66.66,22.31Z"/>
        <g>
          <path class="cls-12" d="m125.47,558.25c.12,0,.24,0,.36,0l157.56-.17c3.89,0,7.05-3.13,7.04-6.98,0-3.86-3.18-7.04-7.06-6.97l-157.56.17c-3.89,0-7.05,3.13-7.04,6.98,0,3.73,2.97,6.78,6.7,6.96Z"/>
          <path class="cls-8" d="m425.02,416.71h-131.21c-9.68,0-18.49,5.53-22.62,14.19l-60.66,127.27h163.06c6.24,0,11.84-3.77,14.14-9.51l47.04-117.77c2.72-6.8-2.35-14.18-9.75-14.18Z"/>
          <ellipse class="cls-20" cx="342.42" cy="485.1" rx="16.64" ry="10.33" transform="translate(-225.49 658.46) rotate(-71.76)"/>
        </g>
      </g>
    </g>
  </g>
</svg>