<svg width="16" height="16" viewBox="0 0 16 16" fill="none" xmlns="http://www.w3.org/2000/svg">
<g clip-path="url(#clip0_63_217)">
<path d="M8 0C3.6 0 0 3.6 0 8C0 12.4 3.6 16 8 16C12.4 16 16 12.4 16 8C16 3.6 12.4 0 8 0ZM11.154 12C11.0073 12 10.934 11.9267 10.7873 11.8533C9.68733 11.1927 8.294 10.8267 6.82733 10.8267C6.02067 10.8267 5.14067 10.9733 4.40733 11.12C4.26067 11.12 4.114 11.1933 4.04067 11.1933C3.74733 11.1933 3.52733 10.9733 3.52733 10.68C3.52733 10.3867 3.674 10.1667 3.96733 10.1667C4.92067 9.94667 5.87467 9.8 6.90133 9.8C8.588 9.8 10.128 10.24 11.448 10.9733C11.5947 11.12 11.7413 11.1933 11.7413 11.4867C11.5933 11.8533 11.3733 12 11.154 12ZM11.96 9.94733C11.8133 9.94733 11.6667 9.874 11.52 9.80067C10.2733 8.994 8.51267 8.554 6.60667 8.554C5.65333 8.554 4.77267 8.70067 4.11333 8.84733C3.96667 8.92067 3.89333 8.92067 3.74667 8.92067C3.38 8.92067 3.15933 8.62733 3.15933 8.33333C3.15933 7.96667 3.306 7.82 3.67267 7.67267C4.55267 7.45267 5.43333 7.23267 6.68 7.23267C8.73333 7.23267 10.64 7.746 12.254 8.69933C12.474 8.846 12.6207 9.066 12.6207 9.28667C12.5467 9.65333 12.3273 9.94733 11.96 9.94733ZM12.9133 7.6C12.7667 7.6 12.6933 7.52667 12.4733 7.45333C11.0067 6.64667 8.88 6.13333 6.82667 6.13333C5.8 6.13333 4.7 6.28 3.746 6.5C3.59933 6.5 3.526 6.57333 3.306 6.57333C2.866 6.64733 2.57267 6.28 2.57267 5.84067C2.57267 5.40133 2.79267 5.18 3.086 5.10733C4.26 4.81333 5.50667 4.66667 6.82667 4.66667C9.1 4.66667 11.4467 5.18 13.2807 6.13333C13.5007 6.28 13.7207 6.5 13.7207 6.86667C13.6473 7.30667 13.3533 7.6 12.9133 7.6Z" fill="white"/>
</g>
<defs>
<clipPath id="clip0_63_217">
<rect width="16" height="16" fill="white"/>
</clipPath>
</defs>
</svg>
